<?xml version="1.0" encoding="UTF-8"?>
<svg version="1.1" xmlns="http://www.w3.org/2000/svg" width="64" height="64">
<path d="M0 0 C2.1328125 0.7109375 2.1328125 0.7109375 4.1953125 2.2734375 C5.42975752 5.48299456 5.31049113 8.27885293 5.140625 11.6875 C4.98055435 13.78197422 4.98055435 13.78197422 6.1328125 15.7109375 C5.854375 16.7009375 5.854375 16.7009375 5.5703125 17.7109375 C5.4259375 18.3709375 5.2815625 19.0309375 5.1328125 19.7109375 C5.7928125 20.3709375 6.4528125 21.0309375 7.1328125 21.7109375 C6.79997501 24.63990743 6.18751642 27.45565252 5.5703125 30.3359375 C5.15377426 33.54923249 5.20767462 36.4181439 5.3203125 39.6484375 C5.32738807 45.33719548 5.07734171 48.48465621 1.1328125 52.7109375 C-2.19798096 53.63781898 -5.42674666 53.65560877 -8.8671875 53.7109375 C-10.51498943 53.88026684 -12.16116555 54.06665451 -13.8046875 54.2734375 C-17.57491031 54.71820063 -20.82662385 54.71702205 -24.6171875 54.1484375 C-27.63059638 53.72975546 -29.33851143 53.80189475 -32.4296875 54.3984375 C-36.40571898 54.75989491 -38.09357376 54.15731687 -41.3515625 52 C-43.94189847 49.7968792 -44.88595723 47.96126277 -45.8671875 44.7109375 C-45.74169922 42.82299805 -45.74169922 42.82299805 -45.421875 40.72265625 C-44.59730496 34.23344809 -44.88480515 27.76389249 -45.08203125 21.23828125 C-45.18831959 13.98168608 -44.68071162 7.41779206 -40.17480469 1.48120117 C-37.05525253 -0.91192966 -35.10306159 -0.73470166 -31.203125 -0.64453125 C-29.91664062 -0.62712891 -28.63015625 -0.60972656 -27.3046875 -0.59179688 C-25.95049499 -0.55430774 -24.596328 -0.51588565 -23.2421875 -0.4765625 C-20.5834048 -0.42061807 -17.92465453 -0.37608144 -15.265625 -0.33203125 C-13.49711182 -0.28598755 -13.49711182 -0.28598755 -11.69287109 -0.23901367 C-1.68156135 -0.41633512 -1.68156135 -0.41633512 0 0 Z " fill="#1AC556" transform="translate(51.8671875,6.2890625)"/>
<path d="M0 0 C2.10226647 0.65868022 2.10226647 0.65868022 4.12109375 0.046875 C8.51444347 -0.7529546 12.85582531 -0.72455147 17.3125 -0.75 C18.22708984 -0.770625 19.14167969 -0.79125 20.08398438 -0.8125 C20.95732422 -0.81765625 21.83066406 -0.8228125 22.73046875 -0.828125 C23.52606201 -0.8374707 24.32165527 -0.84681641 25.14135742 -0.85644531 C26.1232605 -0.68000488 26.1232605 -0.68000488 27.125 -0.5 C29.125 2.5 29.125 2.5 28.75 5.6875 C28.54375 6.615625 28.3375 7.54375 28.125 8.5 C24.18599718 9.43680404 20.54324316 9.60432665 16.5 9.5625 C15.37335937 9.55347656 14.24671875 9.54445313 13.0859375 9.53515625 C12.10882813 9.52355469 11.13171875 9.51195312 10.125 9.5 C9.135 9.5 8.145 9.5 7.125 9.5 C6.795 8.84 6.465 8.18 6.125 7.5 C4.805 8.82 3.485 10.14 2.125 11.5 C1.135 11.17 0.145 10.84 -0.875 10.5 C-0.875 11.16 -0.875 11.82 -0.875 12.5 C0.775 12.83 2.425 13.16 4.125 13.5 C4.125 15.15 4.125 16.8 4.125 18.5 C4.888125 18.314375 5.65125 18.12875 6.4375 17.9375 C9.125 17.5 9.125 17.5 12.125 18.5 C14.13375442 18.22428861 16.13678687 17.89764263 18.125 17.5 C20.34038462 22.91538462 20.34038462 22.91538462 19.25 25.875 C18.87875 26.41125 18.5075 26.9475 18.125 27.5 C12.1947715 27.70102469 8.45968883 27.16734441 3.125 24.5 C3.125 25.304375 3.125 26.10875 3.125 26.9375 C3.125 28.125 3.125 29.3125 3.125 30.5 C3.785 30.5 4.445 30.5 5.125 30.5 C5.125 29.84 5.125 29.18 5.125 28.5 C6.115 28.5 7.105 28.5 8.125 28.5 C8.125 29.16 8.125 29.82 8.125 30.5 C8.785 30.5 9.445 30.5 10.125 30.5 C10.125 31.49 10.125 32.48 10.125 33.5 C9.465 33.5 8.805 33.5 8.125 33.5 C8.125 34.16 8.125 34.82 8.125 35.5 C7.135 35.5 6.145 35.5 5.125 35.5 C5.125 34.84 5.125 34.18 5.125 33.5 C3.0625006 35.31222534 3.0625006 35.31222534 1.125 37.5 C1.125 38.49 1.125 39.48 1.125 40.5 C0.465 40.5 -0.195 40.5 -0.875 40.5 C-0.875 41.16 -0.875 41.82 -0.875 42.5 C-1.865 42.17 -2.855 41.84 -3.875 41.5 C-4.205 42.49 -4.535 43.48 -4.875 44.5 C-6.525 44.5 -8.175 44.5 -9.875 44.5 C-9.689375 43.901875 -9.50375 43.30375 -9.3125 42.6875 C-8.65406313 40.33591238 -8.65406313 40.33591238 -9.875 37.5 C-9.75390625 35.4140625 -9.75390625 35.4140625 -9.4375 33.125 C-9.02689805 29.8822974 -8.77869957 26.77421459 -8.875 23.5 C-8.875 20.47826482 -8.49180682 17.61026648 -8.0859375 14.62109375 C-7.80211051 12.24313758 -7.80211051 12.24313758 -8 8.8125 C-7.85955754 5.09077493 -7.17445434 3.39560917 -4.875 0.5 C-1.875 -0.5 -1.875 -0.5 0 0 Z " fill="#886850" transform="translate(22.875,11.5)"/>
<path d="M0 0 C2.13671875 0.72265625 2.13671875 0.72265625 4.26171875 2.47265625 C5.51842387 5.7041837 5.21040067 7.43450538 4.13671875 10.72265625 C1.01809311 14.6209383 -0.98307222 16.09338376 -5.86328125 16.72265625 C-8.6440361 16.79074525 -11.39692864 16.81743961 -14.17578125 16.78515625 C-14.91634766 16.78064453 -15.65691406 16.77613281 -16.41992188 16.77148438 C-18.23441024 16.759778 -20.04885659 16.74184523 -21.86328125 16.72265625 C-22.19328125 17.38265625 -22.52328125 18.04265625 -22.86328125 18.72265625 C-22.53328125 19.71265625 -22.20328125 20.70265625 -21.86328125 21.72265625 C-20.96609375 21.47515625 -20.96609375 21.47515625 -20.05078125 21.22265625 C-17.29299571 20.59230527 -14.68692896 20.72265625 -11.86328125 20.72265625 C-11.36828125 21.71265625 -11.36828125 21.71265625 -10.86328125 22.72265625 C-16.02897566 24.51483594 -19.37382038 24.84295439 -24.86328125 23.72265625 C-25.19328125 22.73265625 -25.52328125 21.74265625 -25.86328125 20.72265625 C-25.53328125 20.06265625 -25.20328125 19.40265625 -24.86328125 18.72265625 C-26.51328125 18.72265625 -28.16328125 18.72265625 -29.86328125 18.72265625 C-30.19328125 17.40265625 -30.52328125 16.08265625 -30.86328125 14.72265625 C-29.54328125 15.05265625 -28.22328125 15.38265625 -26.86328125 15.72265625 C-26.53328125 14.73265625 -26.20328125 13.74265625 -25.86328125 12.72265625 C-25.26515625 12.88765625 -24.66703125 13.05265625 -24.05078125 13.22265625 C-21.74983789 13.83406865 -21.74983789 13.83406865 -18.86328125 13.72265625 C-13.19661458 13.72265625 -7.52994792 13.72265625 -1.86328125 13.72265625 C-1.53328125 11.41265625 -1.20328125 9.10265625 -0.86328125 6.72265625 C-5.2576704 5.63485068 -9.55198204 5.57322838 -14.05078125 5.59765625 C-14.77458984 5.59378906 -15.49839844 5.58992187 -16.24414062 5.5859375 C-20.18244627 5.51811299 -20.18244627 5.51811299 -23.86328125 6.72265625 C-23.86328125 6.06265625 -23.86328125 5.40265625 -23.86328125 4.72265625 C-24.46140625 5.07328125 -25.05953125 5.42390625 -25.67578125 5.78515625 C-27.86328125 6.72265625 -27.86328125 6.72265625 -30.86328125 5.72265625 C-31.85328125 5.72265625 -32.84328125 5.72265625 -33.86328125 5.72265625 C-35.95438628 9.77417225 -35.9778368 13.0744639 -35.8671875 17.5078125 C-35.86222729 20.32025312 -36.33809141 22.96540958 -36.86328125 25.72265625 C-36.86328125 27.47932303 -36.84736606 29.23636317 -36.79296875 30.9921875 C-36.68516194 36.00520431 -36.88204894 40.01722952 -38.86328125 44.72265625 C-38.20328125 45.05265625 -37.54328125 45.38265625 -36.86328125 45.72265625 C-37.52328125 47.04265625 -38.18328125 48.36265625 -38.86328125 49.72265625 C-37.37828125 49.22765625 -37.37828125 49.22765625 -35.86328125 48.72265625 C-35.20328125 49.05265625 -34.54328125 49.38265625 -33.86328125 49.72265625 C-33.53328125 48.40265625 -33.20328125 47.08265625 -32.86328125 45.72265625 C-32.53328125 46.38265625 -32.20328125 47.04265625 -31.86328125 47.72265625 C-31.20328125 47.72265625 -30.54328125 47.72265625 -29.86328125 47.72265625 C-29.86328125 47.06265625 -29.86328125 46.40265625 -29.86328125 45.72265625 C-29.20328125 45.72265625 -28.54328125 45.72265625 -27.86328125 45.72265625 C-28.35828125 43.24765625 -28.35828125 43.24765625 -28.86328125 40.72265625 C-27.21328125 40.06265625 -25.56328125 39.40265625 -23.86328125 38.72265625 C-24.19328125 39.44453125 -24.52328125 40.16640625 -24.86328125 40.91015625 C-26.03367763 43.6384073 -26.03367763 43.6384073 -25.73828125 46.34765625 C-25.86328125 48.72265625 -25.86328125 48.72265625 -27.86328125 50.53515625 C-28.85328125 51.12296875 -28.85328125 51.12296875 -29.86328125 51.72265625 C-29.53328125 52.38265625 -29.20328125 53.04265625 -28.86328125 53.72265625 C-32.97157556 54.72876914 -35.8465649 55.11178114 -39.61328125 53.16015625 C-43.06189868 50.87661227 -44.64637771 48.75364924 -45.86328125 44.72265625 C-45.73779297 42.8347168 -45.73779297 42.8347168 -45.41796875 40.734375 C-44.59339871 34.24516684 -44.8808989 27.77561124 -45.078125 21.25 C-45.18441334 13.99340483 -44.67680537 7.42951081 -40.17089844 1.49291992 C-37.05134628 -0.90021091 -35.09915534 -0.72298291 -31.19921875 -0.6328125 C-29.91273437 -0.61541016 -28.62625 -0.59800781 -27.30078125 -0.58007812 C-25.94658874 -0.54258899 -24.59242175 -0.5041669 -23.23828125 -0.46484375 C-20.57949855 -0.40889932 -17.92074828 -0.36436269 -15.26171875 -0.3203125 C-13.49320557 -0.2742688 -13.49320557 -0.2742688 -11.68896484 -0.22729492 C-1.66494423 -0.40484151 -1.66494423 -0.40484151 0 0 Z " fill="#17A046" transform="translate(51.86328125,6.27734375)"/>
<path d="M0 0 C2.13671875 0.72265625 2.13671875 0.72265625 4.26171875 2.47265625 C5.51842387 5.7041837 5.21040067 7.43450538 4.13671875 10.72265625 C1.01809311 14.6209383 -0.98307222 16.09338376 -5.86328125 16.72265625 C-8.6440361 16.79074525 -11.39692864 16.81743961 -14.17578125 16.78515625 C-14.91634766 16.78064453 -15.65691406 16.77613281 -16.41992188 16.77148438 C-18.23441024 16.759778 -20.04885659 16.74184523 -21.86328125 16.72265625 C-22.19328125 17.38265625 -22.52328125 18.04265625 -22.86328125 18.72265625 C-22.53328125 19.71265625 -22.20328125 20.70265625 -21.86328125 21.72265625 C-20.96609375 21.47515625 -20.96609375 21.47515625 -20.05078125 21.22265625 C-17.29299571 20.59230527 -14.68692896 20.72265625 -11.86328125 20.72265625 C-11.53328125 21.38265625 -11.20328125 22.04265625 -10.86328125 22.72265625 C-16.02897566 24.51483594 -19.37382038 24.84295439 -24.86328125 23.72265625 C-25.19328125 22.73265625 -25.52328125 21.74265625 -25.86328125 20.72265625 C-25.53328125 20.06265625 -25.20328125 19.40265625 -24.86328125 18.72265625 C-26.51328125 18.72265625 -28.16328125 18.72265625 -29.86328125 18.72265625 C-30.19328125 17.40265625 -30.52328125 16.08265625 -30.86328125 14.72265625 C-29.54328125 15.05265625 -28.22328125 15.38265625 -26.86328125 15.72265625 C-26.53328125 14.73265625 -26.20328125 13.74265625 -25.86328125 12.72265625 C-25.26515625 12.88765625 -24.66703125 13.05265625 -24.05078125 13.22265625 C-21.74983789 13.83406865 -21.74983789 13.83406865 -18.86328125 13.72265625 C-13.19661458 13.72265625 -7.52994792 13.72265625 -1.86328125 13.72265625 C-1.53328125 11.41265625 -1.20328125 9.10265625 -0.86328125 6.72265625 C-5.2576704 5.63485068 -9.55198204 5.57322838 -14.05078125 5.59765625 C-14.77458984 5.59378906 -15.49839844 5.58992187 -16.24414062 5.5859375 C-20.18244627 5.51811299 -20.18244627 5.51811299 -23.86328125 6.72265625 C-23.86328125 6.06265625 -23.86328125 5.40265625 -23.86328125 4.72265625 C-24.46140625 5.07328125 -25.05953125 5.42390625 -25.67578125 5.78515625 C-27.86328125 6.72265625 -27.86328125 6.72265625 -30.86328125 5.72265625 C-31.85328125 5.72265625 -32.84328125 5.72265625 -33.86328125 5.72265625 C-34.52328125 7.37265625 -35.18328125 9.02265625 -35.86328125 10.72265625 C-36.19328125 9.73265625 -36.52328125 8.74265625 -36.86328125 7.72265625 C-35.61328125 5.53515625 -35.61328125 5.53515625 -33.86328125 3.72265625 C-32.87328125 3.72265625 -31.88328125 3.72265625 -30.86328125 3.72265625 C-30.86328125 2.40265625 -30.86328125 1.08265625 -30.86328125 -0.27734375 C-29.87932373 -0.26948853 -29.87932373 -0.26948853 -28.87548828 -0.26147461 C-25.91309562 -0.24073103 -22.95071822 -0.22769199 -19.98828125 -0.21484375 C-18.95574219 -0.20646484 -17.92320313 -0.19808594 -16.859375 -0.18945312 C-15.87324219 -0.18623047 -14.88710938 -0.18300781 -13.87109375 -0.1796875 C-12.9598877 -0.17445068 -12.04868164 -0.16921387 -11.10986328 -0.16381836 C-2.46937477 -0.60044378 -2.46937477 -0.60044378 0 0 Z " fill="#14923F" transform="translate(51.86328125,6.27734375)"/>
<path d="M0 0 C1.32 0 2.64 0 4 0 C5.56515122 -0.03299508 7.1302546 -0.06830999 8.6953125 -0.10546875 C10.50520101 -0.1332928 12.31509722 -0.16062026 14.125 -0.1875 C15.04410156 -0.21263672 15.96320312 -0.23777344 16.91015625 -0.26367188 C17.78800781 -0.27333984 18.66585937 -0.28300781 19.5703125 -0.29296875 C20.37227051 -0.3086792 21.17422852 -0.32438965 22.00048828 -0.34057617 C22.99024658 -0.17199097 22.99024658 -0.17199097 24 0 C26 3 26 3 25.625 6.1875 C25.315625 7.5796875 25.315625 7.5796875 25 9 C21.06099718 9.93680404 17.41824316 10.10432665 13.375 10.0625 C12.24835937 10.05347656 11.12171875 10.04445313 9.9609375 10.03515625 C8.98382813 10.02355469 8.00671875 10.01195312 7 10 C6.01 10 5.02 10 4 10 C3.67 9.34 3.34 8.68 3 8 C1.02 8.33 -0.96 8.66 -3 9 C-3.66 7.68 -4.32 6.36 -5 5 C-4.175 4.54625 -3.35 4.0925 -2.5 3.625 C-1.2625 2.820625 -1.2625 2.820625 0 2 C0 1.34 0 0.68 0 0 Z " fill="#84634A" transform="translate(26,11)"/>
<path d="M0 0 C2.9765625 2.6640625 2.9765625 2.6640625 3.1875 5.6875 C3.125625 6.450625 3.06375 7.21375 3 8 C4.32 7.67 5.64 7.34 7 7 C9 12.75 9 12.75 9 15 C8.34 15 7.68 15 7 15 C7 15.66 7 16.32 7 17 C6.01 16.67 5.02 16.34 4 16 C3.67 16.99 3.34 17.98 3 19 C1.35 19 -0.3 19 -2 19 C-1.7215625 18.1028125 -1.7215625 18.1028125 -1.4375 17.1875 C-0.77906313 14.83591238 -0.77906313 14.83591238 -2 12 C-1.75867872 9.9279656 -1.43760371 7.86453794 -1.0625 5.8125 C-0.86785156 4.72582031 -0.67320313 3.63914063 -0.47265625 2.51953125 C-0.31667969 1.68808594 -0.16070312 0.85664062 0 0 Z " fill="#80624D" transform="translate(15,37)"/>
<path d="M0 0 C0.66 0.33 1.32 0.66 2 1 C1.67 1.556875 1.34 2.11375 1 2.6875 C-0.19017475 4.973057 -0.19017475 4.973057 0.125 7.5625 C0 10 0 10 -2 11.8125 C-2.66 12.204375 -3.32 12.59625 -4 13 C-3.67 13.66 -3.34 14.32 -3 15 C-9.625 16.25 -9.625 16.25 -13 14 C-12.34 13.67 -11.68 13.34 -11 13 C-11.66 12.34 -12.32 11.68 -13 11 C-12.01 10.67 -11.02 10.34 -10 10 C-9.34 10.33 -8.68 10.66 -8 11 C-7.67 9.68 -7.34 8.36 -7 7 C-6.67 7.66 -6.34 8.32 -6 9 C-5.34 9 -4.68 9 -4 9 C-4 8.34 -4 7.68 -4 7 C-3.34 7 -2.68 7 -2 7 C-2.33 5.35 -2.66 3.7 -3 2 C-2.01 1.34 -1.02 0.68 0 0 Z " fill="#1B7B3B" transform="translate(26,45)"/>
<path d="M0 0 C0.99 0 1.98 0 3 0 C4.125 3.75 4.125 3.75 3 6 C3.33 6.99 3.66 7.98 4 9 C4.598125 8.835 5.19625 8.67 5.8125 8.5 C8.57028554 7.86964902 11.17635229 8 14 8 C14.33 8.66 14.66 9.32 15 10 C9.83430559 11.79217969 6.48946087 12.12029814 1 11 C0.67 10.01 0.34 9.02 0 8 C0.33 7.34 0.66 6.68 1 6 C-0.65 6 -2.3 6 -4 6 C-4.33 4.68 -4.66 3.36 -5 2 C-3.68 2.33 -2.36 2.66 -1 3 C-0.67 2.01 -0.34 1.02 0 0 Z " fill="#295A42" transform="translate(26,19)"/>
<path d="M0 0 C0.66 0 1.32 0 2 0 C2.36325349 4.23795734 1.68448204 6.66753954 -1 10 C-5.434576 11.82600188 -10.37100604 10.65552202 -15 10 C-15 10.66 -15 11.32 -15 12 C-15.66 12 -16.32 12 -17 12 C-17.33 12.66 -17.66 13.32 -18 14 C-18 11 -18 8 -18 5 C-17.43410156 5.31582031 -16.86820313 5.63164063 -16.28515625 5.95703125 C-13.90561469 7.04307842 -12.02859633 7.42006028 -9.4375 7.6875 C-8.67308594 7.77386719 -7.90867187 7.86023437 -7.12109375 7.94921875 C-4.80857517 8.12443793 -4.80857517 8.12443793 -2 7 C-0.77030122 3.48809191 -0.77030122 3.48809191 0 0 Z " fill="#177B36" transform="translate(43,30)"/>
<path d="M0 0 C1.32 0.66 2.64 1.32 4 2 C3.38778651 8.48946303 3.38778651 8.48946303 1.70117188 10.70996094 C-1.27073296 12.963627 -4.92530219 12.34548442 -8.5 12.25 C-9.27214844 12.24484375 -10.04429688 12.2396875 -10.83984375 12.234375 C-14.12850625 12.18877829 -16.86273337 12.04575554 -20 11 C-19.67 10.01 -19.34 9.02 -19 8 C-18.0925 8.165 -17.185 8.33 -16.25 8.5 C-10.86217525 9.28873311 -5.43087444 9.08025923 0 9 C1.04214691 4.38492226 1.04214691 4.38492226 0 0 Z " fill="#157D36" transform="translate(50,11)"/>
<path d="M0 0 C2.97 0 5.94 0 9 0 C9.33 1.32 9.66 2.64 10 4 C8.35 4 6.7 4 5 4 C4.67 4.99 4.34 5.98 4 7 C1.69 6.67 -0.62 6.34 -3 6 C-3.66 7.65 -4.32 9.3 -5 11 C-5.33 10.01 -5.66 9.02 -6 8 C-4.75 5.8125 -4.75 5.8125 -3 4 C-2.01 4 -1.02 4 0 4 C0 2.68 0 1.36 0 0 Z " fill="#17883B" transform="translate(21,6)"/>
<path d="M0 0 C3.27275026 0 5.846632 0.29925156 9 1 C9 4 9 4 8 7 C7.01 6.67 6.02 6.34 5 6 C5.33 4.68 5.66 3.36 6 2 C5.3503125 2.7425 5.3503125 2.7425 4.6875 3.5 C3 5 3 5 0 5 C0 5.99 0 6.98 0 8 C-0.99 8.33 -1.98 8.66 -3 9 C-3.66 7.68 -4.32 6.36 -5 5 C-4.175 4.54625 -3.35 4.0925 -2.5 3.625 C-1.2625 2.820625 -1.2625 2.820625 0 2 C0 1.34 0 0.68 0 0 Z " fill="#7A5A41" transform="translate(26,11)"/>
<path d="M0 0 C0.99 0 1.98 0 3 0 C3 0.66 3 1.32 3 2 C3.66 2 4.32 2 5 2 C5 2.99 5 3.98 5 5 C4.34 5 3.68 5 3 5 C3 5.66 3 6.32 3 7 C2.01 7 1.02 7 0 7 C0 6.34 0 5.68 0 5 C-1.65 5.66 -3.3 6.32 -5 7 C-5 5.68 -5 4.36 -5 3 C-3.35 2.67 -1.7 2.34 0 2 C0 1.34 0 0.68 0 0 Z " fill="#DEBFA3" transform="translate(28,40)"/>
<path d="M0 0 C1.5 1.1875 1.5 1.1875 3 3 C3.1875 5.6875 3.1875 5.6875 3 8 C4.32 7.67 5.64 7.34 7 7 C7.33 7.99 7.66 8.98 8 10 C6.1875 10.625 6.1875 10.625 4 11 C1 9 1 9 -1 6 C-0.625 2.8125 -0.625 2.8125 0 0 Z " fill="#67593C" transform="translate(15,37)"/>
<path d="M0 0 C1.134375 0.4125 2.26875 0.825 3.4375 1.25 C3.7675 2.24 4.0975 3.23 4.4375 4.25 C-2.1875 5.5 -2.1875 5.5 -5.5625 3.25 C-4.9025 2.92 -4.2425 2.59 -3.5625 2.25 C-4.2225 1.59 -4.8825 0.93 -5.5625 0.25 C-3.5625 -0.75 -3.5625 -0.75 0 0 Z " fill="#117432" transform="translate(18.5625,55.75)"/>
<path d="M0 0 C1.32 0.66 2.64 1.32 4 2 C1.54463491 4.45536509 0.42213488 4.61976279 -3 5 C-5.34165499 4.73128549 -7.67884289 4.40961596 -10 4 C-8.25 2.4375 -8.25 2.4375 -6 1 C-3.875 1.4375 -3.875 1.4375 -2 2 C-1.34 1.34 -0.68 0.68 0 0 Z " fill="#316534" transform="translate(37,26)"/>
<path d="M0 0 C-0.66 1.65 -1.32 3.3 -2 5 C-3.32 4.67 -4.64 4.34 -6 4 C-5.67 3.34 -5.34 2.68 -5 2 C-5.99 2.33 -6.98 2.66 -8 3 C-8.33 2.34 -8.66 1.68 -9 1 C-6.04335481 -0.4783226 -3.25770263 -0.06032783 0 0 Z " fill="#12652C" transform="translate(45,6)"/>
<path d="M0 0 C2.46800047 1.15173355 4.04783565 2.04783565 6 4 C4.625 5.5 4.625 5.5 3 7 C2.34 7 1.68 7 1 7 C0.67 7.66 0.34 8.32 0 9 C0 6 0 3 0 0 Z " fill="#3F6735" transform="translate(25,35)"/>
<path d="M0 0 C1.134375 0.020625 2.26875 0.04125 3.4375 0.0625 C2.4475 0.3925 1.4575 0.7225 0.4375 1.0625 C0.4375 2.0525 0.4375 3.0425 0.4375 4.0625 C-0.5525 4.3925 -1.5425 4.7225 -2.5625 5.0625 C-3.2225 3.7425 -3.8825 2.4225 -4.5625 1.0625 C-3.5625 0.0625 -3.5625 0.0625 0 0 Z " fill="#694D38" transform="translate(25.5625,14.9375)"/>
<path d="M0 0 C1.98 0.495 1.98 0.495 4 1 C3.67 2.32 3.34 3.64 3 5 C1.68 4.67 0.36 4.34 -1 4 C-0.67 2.68 -0.34 1.36 0 0 Z " fill="#755338" transform="translate(20,29)"/>
<path d="M0 0 C0.33 0.66 0.66 1.32 1 2 C1.66 2 2.32 2 3 2 C3.33 1.34 3.66 0.68 4 0 C3.67 1.65 3.34 3.3 3 5 C1.68 4.67 0.36 4.34 -1 4 C-0.67 2.68 -0.34 1.36 0 0 Z " fill="#254D3E" transform="translate(19,52)"/>
</svg>
